<svg id="SvgjsSvg1028" width="288" height="288" xmlns="http://www.w3.org/2000/svg" version="1.1" xmlns:xlink="http://www.w3.org/1999/xlink" xmlns:svgjs="http://svgjs.com/svgjs"><defs id="SvgjsDefs1029"></defs><g id="SvgjsG1030"><svg xmlns="http://www.w3.org/2000/svg" enable-background="new 0 0 10.134 15.626" viewBox="0 0 10.134 15.626" width="288" height="288"><path d="M7.873,0.853c-1.705-1.137-3.908-1.137-5.612,0C0.065,2.316-0.638,5.167,0.626,7.484l4.441,8.142l4.441-8.142  C10.772,5.167,10.07,2.316,7.873,0.853z M8.631,7.006l-3.563,6.533L1.504,7.006C0.49,5.146,1.053,2.859,2.816,1.685  C3.5,1.229,4.283,1,5.067,1s1.567,0.228,2.251,0.684C9.081,2.859,9.645,5.146,8.631,7.006z" fill="#999999" class="color000 svgShape"></path><path d="M5.067,2.083c-1.378,0-2.5,1.122-2.5,2.5s1.122,2.5,2.5,2.5s2.5-1.122,2.5-2.5S6.446,2.083,5.067,2.083z M5.067,6.083  c-0.827,0-1.5-0.673-1.5-1.5s0.673-1.5,1.5-1.5s1.5,0.673,1.5,1.5S5.894,6.083,5.067,6.083z" fill="#999999" class="color000 svgShape"></path></svg></g></svg>