<svg id="SvgjsSvg1001" width="288" height="288" xmlns="http://www.w3.org/2000/svg" version="1.1" xmlns:xlink="http://www.w3.org/1999/xlink" xmlns:svgjs="http://svgjs.com/svgjs"><defs id="SvgjsDefs1002"></defs><g id="SvgjsG1008"><svg xmlns="http://www.w3.org/2000/svg" width="288" height="288" enable-background="new 0 0 96 96" viewBox="0 0 96 96"><switch><g fill="#1976d5" class="color000 svgShape"><path d="M12,28h72c2.209,0,4-1.791,4-4s-1.791-4-4-4H12c-2.209,0-4,1.791-4,4S9.791,28,12,28z M84,44H12c-2.209,0-4,1.791-4,4
			s1.791,4,4,4h72c2.209,0,4-1.791,4-4S86.209,44,84,44z M84,68H12c-2.209,0-4,1.791-4,4s1.791,4,4,4h72c2.209,0,4-1.791,4-4
			S86.209,68,84,68z" fill="#1976d5" class="color000 svgShape"></path></g></switch></svg></g></svg>