<svg id="SvgjsSvg1011" width="288" height="288" xmlns="http://www.w3.org/2000/svg" version="1.1" xmlns:xlink="http://www.w3.org/1999/xlink" xmlns:svgjs="http://svgjs.com/svgjs"><defs id="SvgjsDefs1012"></defs><g id="SvgjsG1013"><svg xmlns="http://www.w3.org/2000/svg" enable-background="new 0 0 1024.497 1024.497" viewBox="0 0 1024.497 1024.497" width="288" height="288"><path d="M512.217,0C290.211,0,109.598,180.613,109.598,402.619c0,27.629,2.801,55.211,8.326,82.04
		c0.11,1.389,0.322,2.786,0.635,4.19c46.046,207.097,166.002,390.707,337.466,516.792c16.376,12.335,35.947,18.856,56.592,18.856
		c16.361,0,32.518-4.284,46.721-12.39c0.965-0.549,1.899-1.154,2.794-1.805l12.437-9.11
		c166.889-125.135,284.193-305.419,330.294-507.643c0.306-1.342,0.518-2.699,0.628-4.064c6.246-28.178,9.409-57.385,9.409-86.866
		C914.899,180.613,734.255,0,512.217,0z M845.854,479.951c-0.314,1.365-0.533,2.739-0.651,4.12
		C801.66,670.812,692.831,837.199,538.607,952.831l-10.413,7.627c-11.417,5.885-25.557,4.849-36.182-3.162
		C333.04,840.4,221.716,670.835,178.22,479.496c-0.11-1.208-0.298-2.417-0.557-3.633c-5.179-23.886-7.8-48.533-7.8-73.243
		c0-188.774,153.58-342.354,342.354-342.354c188.813,0,342.417,153.58,342.417,342.354
		C854.634,428.953,851.684,454.974,845.854,479.951z" fill="#f0f0f0" class="color000 svgShape"></path><path d="M512.225,230.284c-95.011,0-172.303,77.308-172.303,172.327c0,94.995,77.292,172.28,172.303,172.28
		c95.034,0,172.35-77.284,172.35-172.28C684.575,307.593,607.259,230.284,512.225,230.284z M512.225,514.626
		c-61.779,0-112.039-50.252-112.039-112.015c0-61.795,50.26-112.062,112.039-112.062c61.802,0,112.086,50.268,112.086,112.062
		C624.311,464.375,574.028,514.626,512.225,514.626z" fill="#f0f0f0" class="color000 svgShape"></path></svg></g></svg>